<!-- Generated by IcoMoon.io -->
<svg version="1.1" xmlns="http://www.w3.org/2000/svg" width="50" height="32" viewBox="0 0 50 32">
<title>amex</title>
<path fill="#2557d6" d="M36.839 9.287l-0.966 2.242h1.937l-0.971-2.242zM25.693 10.677c0.182-0.091 0.289-0.289 0.289-0.535 0-0.241-0.113-0.415-0.295-0.497-0.166-0.091-0.421-0.101-0.666-0.101h-1.728v1.249h1.705c0.273 0 0.501-0.004 0.694-0.116zM3.551 9.287l-0.955 2.242h1.916l-0.961-2.242zM48.012 23.653h-2.71v-1.207h2.699c0.268 0 0.455-0.034 0.568-0.139 0.107-0.094 0.167-0.228 0.166-0.367 0-0.164-0.068-0.294-0.172-0.372-0.102-0.086-0.25-0.125-0.494-0.125-1.318-0.043-2.961 0.039-2.961-1.741 0-0.816 0.541-1.675 2.014-1.675h2.795v-1.119h-2.597c-0.784 0-1.353 0.18-1.756 0.46v-0.46h-3.841c-0.614 0-1.335 0.146-1.676 0.46v-0.46h-6.86v0.46c-0.546-0.377-1.467-0.46-1.892-0.46h-4.525v0.46c-0.432-0.401-1.392-0.46-1.978-0.46h-5.064l-1.159 1.202-1.085-1.202h-7.565v7.852h7.422l1.194-1.221 1.125 1.221 4.575 0.004v-1.847h0.45c0.607 0.009 1.323-0.014 1.955-0.276v2.119h3.774v-2.046h0.182c0.232 0 0.255 0.009 0.255 0.232v1.814h11.464c0.728 0 1.489-0.178 1.91-0.503v0.503h3.636c0.757 0 1.496-0.102 2.058-0.362v-1.463c-0.341 0.478-1.005 0.72-1.904 0.72zM24.743 21.799h-1.751v1.887h-2.728l-1.728-1.863-1.796 1.863h-5.559v-5.627h5.644l1.726 1.844 1.785-1.844h4.484c1.114 0 2.365 0.296 2.365 1.854 0 1.563-1.217 1.886-2.444 1.886zM33.163 21.544c0.198 0.275 0.227 0.531 0.233 1.027v1.115h-1.409v-0.704c0-0.338 0.034-0.84-0.227-1.101-0.205-0.201-0.517-0.25-1.030-0.25h-1.5v2.055h-1.41v-5.627h3.24c0.711 0 1.228 0.030 1.689 0.265 0.443 0.256 0.722 0.608 0.722 1.249-0 0.898-0.625 1.356-0.995 1.497 0.312 0.11 0.567 0.308 0.687 0.472zM38.96 19.224h-3.286v1.023h3.206v1.148h-3.206v1.119l3.286 0.005v1.168h-4.684v-5.627h4.684v1.164zM42.566 23.686h-2.733v-1.207h2.722c0.266 0 0.455-0.034 0.573-0.139 0.096-0.087 0.166-0.213 0.166-0.367 0-0.164-0.075-0.294-0.171-0.372-0.107-0.086-0.256-0.125-0.5-0.125-1.312-0.043-2.956 0.039-2.956-1.742 0-0.816 0.535-1.675 2.006-1.675h2.813v1.197h-2.574c-0.255 0-0.421 0.009-0.562 0.102-0.154 0.091-0.211 0.226-0.211 0.405 0 0.212 0.131 0.357 0.307 0.419 0.148 0.049 0.307 0.064 0.546 0.064l0.756 0.020c0.762 0.017 1.285 0.144 1.603 0.452 0.273 0.271 0.42 0.613 0.42 1.192-0 1.21-0.789 1.776-2.205 1.776zM31.682 19.314c-0.17-0.096-0.42-0.102-0.669-0.102h-1.728v1.264h1.705c0.273 0 0.505-0.009 0.693-0.116 0.182-0.105 0.291-0.299 0.291-0.54s-0.109-0.415-0.291-0.506zM47.361 19.213c-0.255 0-0.425 0.009-0.568 0.102-0.148 0.091-0.205 0.226-0.205 0.405 0 0.212 0.125 0.357 0.307 0.419 0.148 0.049 0.307 0.064 0.541 0.064l0.761 0.019c0.767 0.018 1.28 0.145 1.592 0.453 0.057 0.043 0.091 0.091 0.13 0.139v-1.601l-2.558-0zM24.792 19.213h-1.83v1.433h1.814c0.539 0 0.874-0.256 0.875-0.743-0-0.492-0.352-0.69-0.858-0.69zM12.58 19.213v1.023h3.081v1.148h-3.081v1.119h3.45l1.603-1.651-1.535-1.64h-3.518zM21.589 23.147v-4.511l-2.154 2.219 2.154 2.292zM12.698 14.114v0.969h11.724l-0.005-2.051h0.227c0.159 0.005 0.205 0.019 0.205 0.271v1.78h6.064v-0.477c0.489 0.251 1.25 0.477 2.251 0.477h2.551l0.546-1.249h1.21l0.534 1.249h4.916v-1.187l0.744 1.187h3.94v-7.845h-3.899v0.927l-0.546-0.927h-4v0.927l-0.501-0.927h-5.404c-0.905 0-1.7 0.121-2.342 0.458v-0.458h-3.729v0.458c-0.409-0.348-0.966-0.458-1.585-0.458h-13.624l-0.914 2.026-0.939-2.026h-4.291v0.927l-0.471-0.927h-3.66l-1.699 3.73v2.984l2.513-5.625h2.085l2.387 5.326v-5.326h2.29l1.836 3.816 1.687-3.816h2.336v5.625h-1.438l-0.005-4.406-2.035 4.406h-1.232l-2.040-4.409v4.409h-2.854l-0.539-1.255h-2.922l-0.545 1.255h-1.524v1.132h2.398l0.541-1.249h1.21l0.539 1.249h4.718v-0.955l0.421 0.959h2.449l0.421-0.974zM31.172 8.982c0.453-0.449 1.164-0.656 2.131-0.656h1.359v1.205h-1.33c-0.512 0-0.801 0.073-1.080 0.333-0.239 0.237-0.403 0.685-0.403 1.274 0 0.603 0.125 1.037 0.386 1.321 0.216 0.223 0.609 0.29 0.978 0.29h0.63l1.978-4.424h2.103l2.376 5.321v-5.32h2.137l2.467 3.918v-3.918h1.437v5.625h-1.989l-2.66-4.222v4.222h-2.858l-0.546-1.255h-2.915l-0.53 1.255h-1.642c-0.682 0-1.546-0.145-2.035-0.622-0.493-0.478-0.75-1.125-0.75-2.147-0-0.834 0.153-1.597 0.756-2.2zM28.286 8.326h1.432v5.625h-1.432v-5.625zM21.83 8.326h3.228c0.717 0 1.246 0.018 1.699 0.269 0.444 0.251 0.71 0.618 0.71 1.245 0 0.897-0.625 1.36-0.989 1.499 0.307 0.112 0.569 0.31 0.694 0.474 0.198 0.28 0.232 0.53 0.232 1.032v1.105h-1.415l-0.005-0.709c0-0.339 0.034-0.825-0.221-1.096-0.205-0.198-0.518-0.241-1.023-0.241h-1.506v2.046h-1.403l-0-5.625zM16.173 8.326h4.688v1.171h-3.284v1.014h3.206v1.153h-3.206v1.123h3.284v1.163h-4.688v-5.625z"></path>
</svg>
