<!-- Generated by IcoMoon.io -->
<svg version="1.1" xmlns="http://www.w3.org/2000/svg" width="32" height="32" viewBox="0 0 32 32">
<title>contact-location</title>
<path d="M16 0c-0.1-0.003-0.217-0.005-0.335-0.005-6.532 0-11.827 5.295-11.827 11.827 0 0.078 0.001 0.156 0.002 0.234l-0-0.012c0 10.086 11.264 19.418 11.738 19.802 0.111 0.096 0.257 0.154 0.416 0.154s0.305-0.058 0.417-0.154l-0.001 0.001c0.499-0.448 11.75-10.714 11.75-19.802 0.001-0.066 0.002-0.144 0.002-0.222 0-6.532-5.295-11.827-11.827-11.827-0.118 0-0.235 0.002-0.352 0.005l0.017-0zM16 17.92c-3.181 0-5.76-2.579-5.76-5.76s2.579-5.76 5.76-5.76c3.181 0 5.76 2.579 5.76 5.76v0c0 3.181-2.579 5.76-5.76 5.76v0z"></path>
</svg>
