<!-- Generated by IcoMoon.io -->
<svg version="1.1" xmlns="http://www.w3.org/2000/svg" width="50" height="32" viewBox="0 0 50 32">
<title>mastercard</title>
<path fill="#d9222a" d="M28.737 16c0 6.345-5.144 11.488-11.489 11.488s-11.488-5.143-11.488-11.488c0-6.345 5.143-11.488 11.488-11.488s11.489 5.144 11.489 11.488z"></path>
<path fill="#ee9f2d" d="M32.671 4.512c-2.968 0-5.673 1.126-7.712 2.974-0.415 0.377-0.803 0.783-1.16 1.216h2.321c0.318 0.386 0.61 0.793 0.876 1.217h-4.073c-0.245 0.392-0.466 0.798-0.662 1.216h5.396c0.185 0.396 0.348 0.802 0.486 1.216h-6.369c-0.134 0.399-0.245 0.805-0.334 1.216h7.036c0.172 0.799 0.259 1.615 0.259 2.433 0 1.276-0.208 2.503-0.592 3.649h-6.369c0.139 0.415 0.301 0.821 0.486 1.216h5.396c-0.196 0.419-0.417 0.825-0.662 1.217h-4.072c0.265 0.424 0.558 0.83 0.876 1.216h2.321c-0.356 0.433-0.744 0.84-1.16 1.217 2.039 1.847 4.744 2.973 7.712 2.973 6.345 0 11.489-5.143 11.489-11.488s-5.144-11.488-11.489-11.488z"></path>
<path fill="#000" d="M42.628 22.404c0-0.205 0.166-0.371 0.371-0.371s0.371 0.167 0.371 0.371-0.166 0.371-0.371 0.371-0.371-0.167-0.371-0.371zM42.999 22.686c0.156-0 0.282-0.126 0.282-0.282s-0.126-0.282-0.282-0.282h-0c-0.155-0-0.282 0.126-0.282 0.281v0.001c-0 0.156 0.126 0.282 0.282 0.282 0-0 0-0 0-0zM42.949 22.567h-0.076v-0.326h0.138c0.029 0 0.058 0 0.084 0.016 0.026 0.018 0.041 0.049 0.041 0.082 0 0.037-0.022 0.071-0.057 0.084l0.060 0.144h-0.084l-0.050-0.129h-0.056l-0 0.129zM42.949 22.382h0.042c0.016 0 0.032 0.001 0.046-0.006 0.012-0.008 0.019-0.023 0.019-0.037-0-0.013-0.007-0.026-0.018-0.033-0.013-0.008-0.034-0.006-0.048-0.006h-0.041v0.083zM14.565 17.258c-0.131-0.015-0.188-0.019-0.278-0.019-0.707 0-1.065 0.242-1.065 0.721 0 0.295 0.175 0.483 0.447 0.483 0.508 0 0.874-0.484 0.896-1.185zM15.472 19.37h-1.033l0.024-0.491c-0.315 0.388-0.736 0.573-1.307 0.573-0.676 0-1.139-0.528-1.139-1.295 0-1.154 0.806-1.827 2.19-1.827 0.141 0 0.323 0.013 0.508 0.036 0.039-0.156 0.049-0.223 0.049-0.307 0-0.314-0.217-0.431-0.8-0.431-0.61-0.007-1.113 0.145-1.32 0.213 0.013-0.079 0.173-1.066 0.173-1.066 0.622-0.182 1.031-0.251 1.493-0.251 1.071 0 1.638 0.481 1.637 1.39 0.002 0.244-0.038 0.544-0.101 0.939-0.108 0.687-0.34 2.158-0.372 2.517zM11.494 19.37h-1.247l0.714-4.48-1.595 4.48h-0.85l-0.105-4.454-0.751 4.454h-1.168l0.975-5.828h1.793l0.109 3.262 1.094-3.262h1.995l-0.965 5.828zM34.212 17.258c-0.13-0.015-0.188-0.019-0.278-0.019-0.707 0-1.065 0.242-1.065 0.721 0 0.295 0.174 0.483 0.447 0.483 0.508 0 0.874-0.484 0.896-1.185zM35.12 19.37h-1.033l0.023-0.491c-0.315 0.388-0.736 0.573-1.307 0.573-0.676 0-1.139-0.528-1.139-1.295 0-1.154 0.806-1.827 2.19-1.827 0.141 0 0.322 0.013 0.508 0.036 0.039-0.156 0.049-0.223 0.049-0.307 0-0.314-0.217-0.431-0.8-0.431-0.61-0.007-1.113 0.145-1.32 0.213 0.013-0.079 0.173-1.066 0.173-1.066 0.622-0.182 1.031-0.251 1.492-0.251 1.071 0 1.639 0.481 1.638 1.39 0.002 0.244-0.038 0.544-0.101 0.939-0.108 0.687-0.341 2.158-0.372 2.517zM21.015 19.298c-0.341 0.107-0.607 0.153-0.896 0.153-0.638 0-0.986-0.366-0.986-1.041-0.009-0.209 0.092-0.76 0.171-1.263 0.072-0.443 0.541-3.234 0.541-3.234h1.24l-0.145 0.717h0.749l-0.169 1.139h-0.752c-0.144 0.901-0.349 2.024-0.351 2.173 0 0.244 0.13 0.351 0.427 0.351 0.142 0 0.252-0.015 0.336-0.045l-0.165 1.049zM24.816 19.259c-0.426 0.13-0.837 0.193-1.272 0.192-1.388-0.001-2.111-0.726-2.111-2.114 0-1.62 0.92-2.813 2.17-2.813 1.022 0 1.675 0.668 1.675 1.715 0 0.347-0.045 0.687-0.153 1.166h-2.469c-0.084 0.687 0.356 0.974 1.078 0.974 0.444 0 0.844-0.091 1.289-0.298l-0.206 1.179zM24.119 16.45c0.007-0.099 0.132-0.846-0.577-0.846-0.395 0-0.677 0.301-0.792 0.846h1.369zM16.22 16.129c0 0.599 0.291 1.013 0.95 1.323 0.505 0.237 0.583 0.308 0.583 0.523 0 0.296-0.223 0.429-0.716 0.429-0.372 0-0.718-0.058-1.117-0.187 0 0-0.164 1.045-0.172 1.095 0.284 0.062 0.536 0.119 1.298 0.14 1.316 0 1.924-0.501 1.924-1.584 0-0.651-0.254-1.033-0.879-1.321-0.523-0.24-0.583-0.294-0.583-0.515 0-0.256 0.207-0.387 0.61-0.387 0.245 0 0.579 0.026 0.896 0.071l0.178-1.099c-0.323-0.051-0.813-0.092-1.098-0.092-1.395 0-1.878 0.729-1.874 1.604zM30.882 14.649c0.346 0 0.669 0.091 1.114 0.315l0.204-1.265c-0.183-0.072-0.826-0.493-1.371-0.493-0.835 0-1.54 0.414-2.036 1.098-0.724-0.24-1.021 0.245-1.386 0.728l-0.324 0.075c0.024-0.159 0.047-0.317 0.039-0.477h-1.145c-0.156 1.467-0.434 2.952-0.651 4.421l-0.057 0.318h1.248c0.208-1.353 0.322-2.22 0.392-2.806l0.47-0.261c0.070-0.261 0.29-0.349 0.731-0.339-0.059 0.32-0.089 0.646-0.088 0.972 0 1.55 0.836 2.516 2.179 2.516 0.346 0 0.643-0.046 1.102-0.17l0.22-1.329c-0.413 0.204-0.753 0.299-1.060 0.299-0.725 0-1.164-0.535-1.164-1.42 0-1.283 0.653-2.183 1.584-2.183z"></path>
<path fill="#fff" d="M11.853 19.023h-1.247l0.715-4.479-1.595 4.479h-0.85l-0.105-4.454-0.751 4.454h-1.167l0.975-5.827h1.793l0.050 3.607 1.21-3.607h1.937l-0.965 5.827z"></path>
<path fill="#000" d="M41.441 13.542l-0.277 1.684c-0.341-0.449-0.707-0.774-1.191-0.774-0.629 0-1.202 0.477-1.577 1.179-0.522-0.108-1.062-0.292-1.062-0.292l-0 0.004c0.042-0.393 0.059-0.632 0.055-0.713h-1.146c-0.156 1.467-0.433 2.952-0.65 4.421l-0.057 0.318h1.248c0.169-1.094 0.297-2.003 0.392-2.723 0.426-0.385 0.639-0.721 1.070-0.699-0.191 0.461-0.302 0.992-0.302 1.537 0 1.185 0.599 1.966 1.506 1.966 0.457 0 0.808-0.158 1.15-0.523l-0.058 0.441h1.18l0.95-5.827-1.23-0zM39.882 18.275c-0.425 0-0.639-0.314-0.639-0.934 0-0.932 0.401-1.592 0.967-1.592 0.428 0 0.66 0.327 0.66 0.929 0 0.939-0.408 1.598-0.989 1.598z"></path>
<path fill="#fff" d="M14.924 16.913c-0.131-0.015-0.189-0.019-0.278-0.019-0.707 0-1.065 0.242-1.065 0.721 0 0.295 0.175 0.483 0.447 0.483 0.509-0 0.875-0.484 0.896-1.185zM15.832 19.024h-1.033l0.024-0.49c-0.315 0.387-0.736 0.573-1.307 0.573-0.676 0-1.14-0.528-1.14-1.295 0-1.154 0.806-1.827 2.19-1.827 0.141 0 0.323 0.013 0.508 0.037 0.039-0.156 0.049-0.223 0.049-0.308 0-0.314-0.217-0.431-0.8-0.431-0.61-0.007-1.113 0.145-1.32 0.213 0.013-0.078 0.173-1.065 0.173-1.065 0.621-0.183 1.032-0.251 1.492-0.251 1.071 0 1.639 0.481 1.638 1.389 0.002 0.245-0.039 0.545-0.101 0.939-0.108 0.686-0.34 2.158-0.372 2.516zM32.56 13.354l-0.204 1.265c-0.445-0.224-0.768-0.315-1.114-0.315-0.931 0-1.584 0.9-1.584 2.183 0 0.885 0.439 1.42 1.164 1.42 0.307 0 0.646-0.096 1.059-0.299l-0.219 1.328c-0.46 0.125-0.756 0.171-1.102 0.171-1.343 0-2.179-0.965-2.179-2.516 0-2.083 1.156-3.539 2.809-3.539 0.544 0 1.188 0.231 1.371 0.303zM34.572 16.913c-0.131-0.015-0.188-0.019-0.278-0.019-0.707 0-1.065 0.242-1.065 0.721 0 0.295 0.175 0.483 0.447 0.483 0.508-0 0.874-0.484 0.896-1.185zM35.48 19.024h-1.034l0.024-0.49c-0.315 0.387-0.736 0.573-1.307 0.573-0.676 0-1.139-0.528-1.139-1.295 0-1.154 0.806-1.827 2.19-1.827 0.142 0 0.323 0.013 0.508 0.037 0.038-0.156 0.049-0.223 0.049-0.308 0-0.314-0.217-0.431-0.8-0.431-0.61-0.007-1.113 0.145-1.32 0.213 0.013-0.078 0.173-1.065 0.173-1.065 0.621-0.183 1.031-0.251 1.492-0.251 1.071 0 1.639 0.481 1.637 1.389 0.002 0.245-0.038 0.545-0.101 0.939-0.108 0.686-0.341 2.158-0.372 2.516zM21.375 18.952c-0.342 0.107-0.608 0.154-0.896 0.154-0.638 0-0.986-0.366-0.986-1.041-0.009-0.21 0.092-0.76 0.171-1.263 0.072-0.443 0.54-3.234 0.54-3.234h1.24l-0.145 0.718h0.636l-0.169 1.138h-0.638c-0.144 0.902-0.35 2.024-0.352 2.173 0 0.245 0.131 0.351 0.427 0.351 0.142 0 0.252-0.014 0.336-0.044l-0.165 1.049zM25.176 18.914c-0.426 0.13-0.837 0.193-1.272 0.192-1.388-0.001-2.111-0.726-2.111-2.114 0-1.621 0.92-2.813 2.17-2.813 1.022 0 1.675 0.667 1.675 1.715 0 0.348-0.045 0.687-0.153 1.166h-2.469c-0.084 0.687 0.356 0.974 1.078 0.974 0.444 0 0.844-0.092 1.289-0.299l-0.206 1.179zM24.479 16.104c0.007-0.098 0.132-0.846-0.577-0.846-0.395 0-0.677 0.302-0.792 0.846h1.369zM16.58 15.783c0 0.6 0.291 1.012 0.95 1.323 0.505 0.237 0.583 0.308 0.583 0.523 0 0.295-0.223 0.429-0.716 0.429-0.372 0-0.718-0.058-1.118-0.187 0 0-0.163 1.045-0.171 1.094 0.283 0.062 0.536 0.118 1.298 0.14 1.316 0 1.924-0.501 1.924-1.584 0-0.652-0.254-1.034-0.879-1.321-0.523-0.241-0.583-0.293-0.583-0.515 0-0.256 0.208-0.388 0.611-0.388 0.245 0 0.579 0.027 0.896 0.072l0.177-1.099c-0.323-0.051-0.812-0.092-1.097-0.092-1.395 0-1.878 0.728-1.874 1.604zM42.081 19.024h-1.18l0.059-0.441c-0.342 0.366-0.693 0.524-1.15 0.524-0.907 0-1.506-0.782-1.506-1.966 0-1.576 0.929-2.905 2.029-2.905 0.484 0 0.85 0.198 1.191 0.646l0.277-1.684h1.23l-0.95 5.827zM40.241 17.929c0.581 0 0.989-0.658 0.989-1.597 0-0.602-0.232-0.929-0.661-0.929-0.566 0-0.967 0.66-0.967 1.592-0 0.62 0.215 0.934 0.639 0.934zM36.603 14.285c-0.156 1.467-0.433 2.952-0.65 4.42l-0.057 0.318h1.247c0.446-2.898 0.554-3.463 1.254-3.393 0.111-0.593 0.319-1.113 0.474-1.375-0.522-0.109-0.814 0.186-1.196 0.747 0.030-0.242 0.085-0.478 0.074-0.718l-1.145-0zM26.336 14.285c-0.157 1.467-0.434 2.952-0.651 4.42l-0.057 0.318h1.248c0.446-2.898 0.553-3.463 1.252-3.393 0.112-0.593 0.319-1.113 0.474-1.375-0.522-0.109-0.814 0.186-1.195 0.747 0.030-0.242 0.085-0.478 0.074-0.718l-1.145-0zM42.629 18.653c-0-0.205 0.166-0.371 0.37-0.371h0.001c0.205-0 0.371 0.166 0.371 0.37v0.001c-0 0.205-0.166 0.371-0.371 0.371s-0.371-0.166-0.371-0.371zM42.999 18.935c0.156 0 0.282-0.126 0.282-0.282v-0c0-0.156-0.126-0.282-0.282-0.282h-0c-0.156 0-0.282 0.126-0.282 0.282s0.126 0.282 0.282 0.282zM42.949 18.815h-0.076v-0.325h0.138c0.029 0 0.058 0.001 0.083 0.016 0.027 0.018 0.042 0.049 0.042 0.082 0 0.037-0.022 0.071-0.057 0.084l0.060 0.143h-0.084l-0.050-0.129h-0.056l0 0.129zM42.949 18.631h0.042c0.016 0 0.033 0.001 0.047-0.006 0.013-0.008 0.019-0.023 0.019-0.038-0.001-0.013-0.007-0.026-0.018-0.033-0.013-0.008-0.035-0.005-0.049-0.005h-0.040l0 0.083z"></path>
</svg>
