<!-- Generated by IcoMoon.io -->
<svg version="1.1" xmlns="http://www.w3.org/2000/svg" width="117" height="32" viewBox="0 0 117 32">
<title>paytr</title>
<path fill="#147ec2" d="M17.723 2.967c-1.95-1.968-4.925-2.967-8.839-2.967-3.371 0-6.939 0.672-8.683 1.635l-0.2 0.112v30.253h6.708v-8.962c0.774 0.119 1.667 0.188 2.576 0.188 0.040 0 0.079-0 0.118-0l-0.006 0c3.41 0 6.096-0.94 7.986-2.796 2.082-2.043 3.123-5.159 3.123-9.261 0.013-3.569-0.927-6.328-2.782-8.202zM6.708 6.19c0.535-0.090 1.151-0.141 1.78-0.141 0.128 0 0.255 0.002 0.381 0.006l-0.018-0c3.238 0 4.883 0.893 4.883 5.768 0 4.532-1.851 5.443-4.836 5.443-0.026 0-0.056 0-0.086 0-0.737 0-1.462-0.057-2.168-0.166l0.079 0.010z"></path>
<path fill="#147ec2" d="M41.042 8.798c-1.393-6.171-2.803-8.751-7.941-8.751-2.759 0-4.552 0.742-5.57 1.364l-0.138 0.083-7.288 30.506h6.637l1.96-8.634h8.803l1.913 8.634h6.82zM32.606 6.247c0.095-0.027 0.204-0.042 0.317-0.042 0.013 0 0.026 0 0.039 0.001l-0.002-0c0.651 0 0.875 0.445 1.999 5.57l1.249 5.726h-6.164z"></path>
<path fill="#147ec2" d="M62.048 0.513l-5.336 13.431-5.38-13.431h-7.348l9.261 21.19v10.297h6.661v-10.297l9.259-21.19h-7.116z"></path>
<path fill="#454d4f" d="M70.51 0.513v5.867h7.418v25.62h6.708v-25.62h7.327v-5.867h-21.453z"></path>
<path fill="#454d4f" d="M110.532 19.503c3.3-1.76 5.042-4.945 5.042-9.266-0.005-6.507-4.191-10.237-11.497-10.237-3.644 0-7.207 0.64-9.095 1.632l-0.208 0.109v30.259h6.708v-11.062c0.521 0.047 1.301 0.096 1.707 0.096h0.836l5.695 10.966h7.41zM101.482 6.143c0.578-0.060 1.25-0.094 1.929-0.094 0.168 0 0.336 0.002 0.503 0.006l-0.025-0c3.537 0 4.789 1.242 4.789 4.742 0 2.97-1.689 4.425-5.162 4.425-0.648 0-1.489 0-2.035-0.047z"></path>
</svg>
