<!-- Generated by IcoMoon.io -->
<svg version="1.1" xmlns="http://www.w3.org/2000/svg" width="50" height="32" viewBox="0 0 50 32">
<title>visa</title>
<path fill="#0e4595" d="M18.765 22.319l2.135-12.529h3.415l-2.137 12.529h-3.413zM34.516 10.060c-0.676-0.254-1.737-0.526-3.061-0.526-3.374 0-5.751 1.699-5.772 4.135-0.019 1.8 1.697 2.805 2.992 3.404 1.329 0.614 1.776 1.006 1.77 1.554-0.009 0.84-1.061 1.223-2.043 1.223-1.367 0-2.093-0.19-3.214-0.657l-0.44-0.199-0.479 2.805c0.798 0.35 2.273 0.653 3.804 0.668 3.59 0 5.92-1.68 5.947-4.281 0.013-1.425-0.897-2.51-2.867-3.404-1.194-0.58-1.925-0.966-1.917-1.553 0-0.521 0.619-1.078 1.956-1.078 1.117-0.017 1.926 0.226 2.556 0.48l0.306 0.145 0.463-2.715zM43.304 9.79h-2.639c-0.817 0-1.429 0.223-1.788 1.039l-5.072 11.482h3.586s0.586-1.544 0.719-1.883c0.392 0 3.876 0.005 4.373 0.005 0.102 0.439 0.416 1.877 0.416 1.877h3.169l-2.764-12.521zM39.117 17.88c0.282-0.722 1.361-3.502 1.361-3.502-0.020 0.033 0.28-0.725 0.453-1.196l0.231 1.080s0.654 2.991 0.791 3.618l-2.835 0zM15.866 9.79l-3.343 8.544-0.356-1.736c-0.622-2.002-2.562-4.17-4.729-5.256l3.057 10.957 3.613-0.004 5.376-12.505-3.618-0z"></path>
<path fill="#f2ae14" d="M9.403 9.789h-5.507l-0.044 0.261c4.284 1.037 7.119 3.543 8.296 6.555l-1.197-5.757c-0.207-0.793-0.806-1.030-1.548-1.058z"></path>
</svg>
