<svg width="16" height="18" viewBox="0 0 16 18" fill="none" xmlns="http://www.w3.org/2000/svg">
<path d="M7.42147 3.52161C7.42147 3.48072 7.42147 3.45431 7.42147 3.4279C7.42147 2.79783 7.42027 2.16776 7.42214 1.53768C7.42308 1.22171 7.66958 0.966194 7.97828 0.954397C8.30384 0.942064 8.57776 1.20455 8.57843 1.53339C8.57977 2.15676 8.57883 2.78013 8.57883 3.4035C8.57883 3.49359 8.57977 3.49466 8.65427 3.45029C9.06983 3.20241 9.48487 2.9536 9.90057 2.706C10.2585 2.49285 10.698 2.68723 10.7787 3.09369C10.8264 3.33393 10.7123 3.57443 10.4844 3.71103C10.0579 3.96654 9.63079 4.22139 9.20412 4.47677C9.01473 4.59018 8.82614 4.70494 8.63581 4.81674C8.59435 4.84114 8.57789 4.86942 8.57789 4.91822C8.5791 6.01307 8.5787 7.10779 8.57896 8.20264C8.57896 8.27517 8.58512 8.27825 8.64892 8.24138C9.56539 7.71038 10.4804 7.17696 11.3999 6.65159C11.5081 6.58979 11.5475 6.52692 11.546 6.40358C11.542 6.05972 11.5524 5.71573 11.5587 5.37187C11.565 5.03029 11.5731 4.68871 11.5805 4.34714C11.5872 4.03505 11.8361 3.78436 12.1432 3.78047C12.4619 3.77645 12.7322 4.01749 12.7345 4.33132C12.7376 4.74207 12.7221 5.15296 12.7149 5.56384C12.7134 5.65098 12.7145 5.73812 12.7114 5.82512C12.7095 5.87888 12.7272 5.88089 12.7686 5.85663C13.0363 5.70032 13.3047 5.54534 13.573 5.39011C13.8567 5.22602 14.14 5.06099 14.4246 4.89851C14.6513 4.76915 14.9599 4.82827 15.1374 5.03217C15.3141 5.23513 15.3216 5.54347 15.1577 5.76359C15.0972 5.84496 15.0166 5.89859 14.9313 5.94792C14.3965 6.25692 13.8616 6.56579 13.3269 6.87493C13.3177 6.88029 13.3094 6.88713 13.2919 6.8996C13.3809 6.94987 13.4635 6.99652 13.5461 7.04291C13.9174 7.25163 14.2888 7.45996 14.6599 7.66896C14.9425 7.82822 15.04 8.17074 14.8867 8.46405C14.7507 8.72439 14.4008 8.84009 14.1281 8.69745C13.8003 8.52599 13.481 8.33817 13.1584 8.15693C12.8279 7.97139 12.4974 7.78572 12.1675 7.59898C12.1314 7.57847 12.1025 7.58222 12.0683 7.60206C11.185 8.1147 10.3014 8.62667 9.41786 9.13877C9.35031 9.17791 9.28371 9.21867 9.21482 9.25526C9.16828 9.27993 9.17175 9.29468 9.21522 9.31961C9.43578 9.44603 9.65514 9.57459 9.87502 9.70208C10.2648 9.9277 10.6548 10.1532 11.0447 10.3785C11.3805 10.5728 11.7168 10.7662 12.0518 10.9618C12.0933 10.9861 12.1247 10.9877 12.1677 10.9634C12.8055 10.6012 13.4442 10.2402 14.0834 9.88038C14.3514 9.72956 14.7037 9.83305 14.8613 10.1057C15.019 10.3787 14.9242 10.7326 14.6424 10.8969C14.3535 11.0654 14.0604 11.2266 13.7692 11.3911C13.6236 11.4733 13.4784 11.5562 13.3321 11.6372C13.29 11.6605 13.2837 11.6755 13.3304 11.7025C13.7692 11.9548 14.2074 12.208 14.6454 12.4618C14.7766 12.5378 14.9095 12.6115 15.0361 12.6945C15.2262 12.8192 15.3147 13.0724 15.258 13.3038C15.2017 13.5333 15.0082 13.7059 14.7827 13.7364C14.6362 13.7563 14.5045 13.723 14.3793 13.6505C13.8698 13.3554 13.3605 13.0604 12.8506 12.7661C12.8228 12.75 12.7922 12.7137 12.763 12.73C12.7326 12.7471 12.7503 12.7917 12.7507 12.8239C12.7555 13.1991 12.7603 13.5743 12.7684 13.9496C12.771 14.0745 12.7879 14.1997 12.7686 14.324C12.7221 14.6236 12.4591 14.8467 12.1784 14.8287C11.8564 14.8081 11.6201 14.5653 11.6135 14.2436C11.6055 13.8482 11.6018 13.4529 11.5943 13.0577C11.5881 12.7317 11.5781 12.4058 11.5725 12.0797C11.5717 12.0308 11.5464 12.0085 11.5097 11.9874C11.0173 11.7032 10.5252 11.4183 10.0329 11.1338C9.57141 10.8673 9.10983 10.6009 8.64811 10.3347C8.58231 10.2968 8.57937 10.2981 8.57937 10.3726C8.5791 11.4652 8.5795 12.5578 8.57816 13.6504C8.57816 13.6992 8.59528 13.728 8.63621 13.7524C9.17644 14.0742 9.71599 14.3973 10.2555 14.7203C10.3417 14.7717 10.4277 14.8235 10.5128 14.8766C10.7853 15.047 10.8688 15.3981 10.7034 15.6752C10.5435 15.9429 10.1867 16.0312 9.91234 15.8683C9.49249 15.619 9.07398 15.3674 8.65453 15.1172C8.63434 15.1051 8.61347 15.0782 8.59007 15.0915C8.56666 15.1047 8.57937 15.1367 8.57937 15.16C8.5787 15.7878 8.58003 16.4157 8.57816 17.0435C8.57723 17.3711 8.29942 17.6346 7.97534 17.6201C7.6657 17.6063 7.42268 17.3516 7.42187 17.0342C7.42027 16.4333 7.42161 15.8321 7.4208 15.2312C7.4208 15.1966 7.43873 15.1478 7.4093 15.1306C7.38041 15.1137 7.34617 15.1523 7.31661 15.17C6.9183 15.4077 6.52038 15.6461 6.12287 15.885C5.90258 16.0174 5.68162 16.0212 5.46842 15.8769C5.12615 15.6454 5.13805 15.1322 5.4921 14.9108C5.79264 14.7228 6.09946 14.5449 6.40362 14.3626C6.7269 14.1689 7.04964 13.9744 7.37412 13.7825C7.42308 13.7536 7.42161 13.7135 7.42161 13.6682C7.42134 12.6114 7.42134 11.5545 7.42134 10.4977C7.42134 10.4552 7.42174 10.4129 7.42121 10.3704C7.4204 10.2997 7.41599 10.2966 7.35593 10.3311C7.20506 10.4175 7.05446 10.5047 6.90399 10.5918C6.42154 10.8711 5.9391 11.1504 5.45679 11.4297C5.14421 11.6107 4.83189 11.792 4.51851 11.9718C4.4824 11.9925 4.4713 12.0181 4.46956 12.0579C4.45712 12.337 4.46046 12.6162 4.45565 12.8953C4.44789 13.3486 4.44067 13.802 4.42984 14.2552C4.42261 14.5573 4.17624 14.8083 3.88239 14.8199C3.56673 14.8322 3.29642 14.6121 3.2785 14.2993C3.26325 14.0326 3.2805 13.7639 3.28385 13.4961C3.28706 13.2392 3.29187 12.9823 3.29334 12.7255C3.29374 12.6668 3.25736 12.7052 3.24158 12.7142C3.08429 12.803 2.92793 12.8933 2.77157 12.9838C2.38958 13.205 2.00544 13.4229 1.62639 13.6493C1.28532 13.853 0.912685 13.6953 0.781206 13.4162C0.649059 13.1357 0.756997 12.8066 1.02597 12.6519C1.55363 12.3484 2.07967 12.0421 2.60599 11.7363C2.68062 11.6928 2.67942 11.68 2.60291 11.6369C2.1832 11.4007 1.76215 11.1668 1.3443 10.9272C0.993739 10.7264 0.94532 10.2606 1.24212 9.98709C1.42255 9.82072 1.70089 9.79552 1.92773 9.92327C2.55329 10.2757 3.17952 10.6268 3.80428 10.9805C3.85096 11.0069 3.88399 10.9996 3.92626 10.9751C4.84808 10.4401 5.77043 9.90598 6.69279 9.37189C6.83871 9.28744 6.83978 9.28596 6.69359 9.20124C6.00463 8.80242 5.31514 8.40467 4.62592 8.00638C4.40777 7.88037 4.18935 7.75475 3.9724 7.62646C3.93 7.60139 3.8983 7.6038 3.85644 7.62753C3.21456 7.99177 2.57228 8.35547 1.92893 8.71702C1.65394 8.87159 1.29963 8.7677 1.14608 8.49234C0.989994 8.21229 1.0875 7.86213 1.36798 7.7026C1.80401 7.4546 2.24098 7.20793 2.67728 6.96033C2.696 6.94974 2.72623 6.94464 2.72663 6.92051C2.72717 6.89222 2.69467 6.88686 2.67447 6.8752C2.1206 6.55467 1.56513 6.23668 1.01287 5.91347C0.751513 5.76037 0.656549 5.4515 0.77492 5.17441C0.907335 4.86433 1.30097 4.73765 1.59308 4.9075C2.12702 5.21798 2.66243 5.52591 3.19744 5.83464C3.26151 5.87164 3.26338 5.87097 3.26204 5.79496C3.25348 5.31262 3.24171 4.83028 3.2365 4.34794C3.23422 4.1317 3.33547 3.96507 3.51925 3.85487C3.90058 3.62617 4.38302 3.89764 4.39238 4.34432C4.39854 4.63241 4.40188 4.9205 4.40736 5.20859C4.41552 5.63731 4.42582 6.06603 4.43171 6.49474C4.43251 6.55628 4.47157 6.57411 4.51129 6.59716C4.91442 6.83096 5.31768 7.06449 5.72108 7.29788C6.25957 7.60943 6.79819 7.92085 7.33667 8.23227C7.35018 8.24004 7.36383 8.24782 7.37733 8.25546C7.4101 8.27396 7.42214 8.26029 7.42147 8.22677C7.42121 8.21337 7.42161 8.19996 7.42161 8.18655C7.42161 7.11181 7.42107 6.0372 7.42294 4.96246C7.42308 4.89825 7.40194 4.86353 7.34657 4.83082C6.9413 4.59179 6.53857 4.34861 6.13478 4.10704C5.93575 3.98799 5.73726 3.86801 5.53704 3.75098C5.20386 3.55619 5.11826 3.15442 5.34925 2.8615C5.52406 2.63977 5.85269 2.58441 6.10522 2.73536C6.51677 2.98135 6.92779 3.22815 7.33908 3.47442C7.36182 3.48809 7.38496 3.50083 7.42147 3.52161Z" fill="#959595"/>
</svg>
