<svg width="100%" height="100%" viewBox="0 0 34 33" fill="none" xmlns="http://www.w3.org/2000/svg">
<g clip-path="url(#clip0_5203_688)">
<path d="M4.04471 14.5847L27.8173 20.9407C30.4818 21.6576 33.188 20.9545 33.5626 18.9002C33.868 17.0113 31.7862 15.3017 29.3022 14.8191L20.6563 13.1095C20.0596 12.9992 19.7127 12.7648 19.2964 12.172L11.955 1.67983C11.7191 1.34893 11.3999 1.12834 11.0113 1.03183L10.026 0.783656C9.67907 0.700932 9.41539 1.00425 9.51254 1.43166L12.1771 12.6407L13.0513 11.6205L5.76555 10.2004L8.097 11.6343L2.4904 5.12665C2.21285 4.80954 1.92141 4.71303 1.42182 4.82334L0.894465 4.93363C0.519766 5.00257 0.353234 5.2921 0.422622 5.62299L1.89366 12.7648C2.08795 13.6748 2.85123 14.2676 4.04471 14.5847ZM2.01856 29.1028H31.9667C32.5773 29.1028 33.0768 28.5926 33.0768 27.9859C33.0768 27.3793 32.5773 26.883 31.9667 26.883H2.01856C1.40794 26.883 0.908343 27.3793 0.908343 27.9859C0.908343 28.5926 1.40794 29.1028 2.01856 29.1028Z" fill="currentColor"/>
</g>
<defs>
<clipPath id="clip0_5203_688">
<rect width="33.1852" height="32" fill="white" transform="translate(0.407227 0.77002)"/>
</clipPath>
</defs>
</svg>
