<svg width="18" height="15" viewBox="0 0 18 15" fill="none" xmlns="http://www.w3.org/2000/svg">
<path d="M8.76982 0.833374C8.92414 0.833374 9.07846 0.833374 9.23278 0.833374C9.27553 0.841836 9.31812 0.850452 9.36087 0.858453C10.376 1.04877 11.0703 2.00792 10.9126 3.02722C10.8025 3.73865 10.3959 4.23499 9.73633 4.5244C9.6746 4.55147 9.65284 4.58409 9.653 4.6501C9.65485 5.47046 9.65423 6.29082 9.65439 7.11103C9.65439 7.21104 9.65686 7.21335 9.75979 7.21335C11.0095 7.21335 12.259 7.21304 13.5087 7.21381C13.5863 7.21381 13.6626 7.20504 13.738 7.18996C14.347 7.06811 14.7599 6.52838 14.7564 5.96542C14.7536 5.53477 14.7539 5.10413 14.7584 4.67348C14.7593 4.58825 14.7309 4.54686 14.6525 4.51424C13.9388 4.21714 13.419 3.47263 13.4854 2.61965C13.5331 2.00592 13.8136 1.52404 14.3126 1.16694C14.5748 0.97923 14.8721 0.878916 15.1896 0.833374C15.3388 0.833374 15.4879 0.833374 15.6371 0.833374C15.647 0.836143 15.6565 0.840298 15.6666 0.841682C16.1979 0.91738 16.6269 1.16817 16.9541 1.59143C17.1675 1.86744 17.2846 2.18331 17.3346 2.5258C17.3346 2.67965 17.3346 2.83351 17.3346 2.98737C17.332 2.99721 17.3285 3.00691 17.3268 3.01706C17.2044 3.74019 16.8016 4.2433 16.128 4.53209C16.0729 4.55563 16.0586 4.58917 16.0589 4.6441C16.0606 4.96966 16.0618 5.29537 16.0589 5.62093C16.057 5.8231 16.0689 6.02542 16.0461 6.22774C15.9817 6.79778 15.753 7.29305 15.3582 7.70708C14.8468 8.24342 14.2126 8.51159 13.4715 8.51436C12.2423 8.51882 11.0132 8.51559 9.78402 8.51559C9.65454 8.51559 9.65454 8.51575 9.65454 8.64791C9.65454 9.44781 9.65609 10.2477 9.65254 11.0476C9.65207 11.1381 9.6797 11.1809 9.76457 11.217C10.5468 11.549 11.0192 12.3534 10.9218 13.1756C10.8393 13.873 10.4777 14.3798 9.8567 14.7051C9.65655 14.8099 9.43988 14.8628 9.21766 14.8959C9.07368 14.8959 8.92954 14.8959 8.78556 14.8959C8.74266 14.888 8.69991 14.88 8.65701 14.8725C7.63988 14.6937 6.92862 13.7206 7.08818 12.7083C7.19976 12.0004 7.59775 11.5016 8.25377 11.2109C8.32723 11.1782 8.35053 11.1402 8.35022 11.0621C8.34744 10.2543 8.34852 9.44658 8.34852 8.63883C8.34852 8.51575 8.34837 8.51559 8.22522 8.51559C6.60747 8.51559 4.98973 8.51559 3.37183 8.51559C3.24621 8.51559 3.2459 8.51575 3.2459 8.63791C3.24575 9.44304 3.24698 10.2483 3.24405 11.0535C3.24374 11.1372 3.26859 11.1799 3.34791 11.2142C4.14173 11.5572 4.60547 12.3309 4.51149 13.1847C4.44173 13.8181 4.1192 14.3026 3.57368 14.6366C3.34004 14.7797 3.08217 14.8546 2.81318 14.8959C2.66396 14.8959 2.51488 14.8959 2.36565 14.8959C2.35331 14.8928 2.34112 14.8885 2.32862 14.8866C1.80084 14.8086 1.37383 14.5591 1.04868 14.1378C0.835407 13.8618 0.717197 13.5464 0.667969 13.2035C0.667969 13.0496 0.667969 12.8957 0.667969 12.7419C0.671055 12.7294 0.674913 12.7173 0.677074 12.7046C0.799913 11.9881 1.19991 11.4884 1.86643 11.2004C1.93217 11.1721 1.94405 11.1332 1.94389 11.0707C1.94281 8.93331 1.94266 6.79578 1.94467 4.6584C1.94467 4.58455 1.91951 4.55086 1.85223 4.52301C1.44744 4.355 1.13371 4.08098 0.91195 3.70311C0.781703 3.48109 0.708864 3.23969 0.667969 2.98737C0.667969 2.83351 0.667969 2.67965 0.667969 2.5258C0.671364 2.50826 0.675222 2.49087 0.678154 2.47333C0.772444 1.89283 1.06612 1.44142 1.56087 1.12109C1.80624 0.962152 2.07846 0.877069 2.3655 0.833374C2.51473 0.833374 2.6638 0.833374 2.81303 0.833374C2.8584 0.841682 2.90362 0.849991 2.94899 0.858453C3.92769 1.04062 4.63494 1.94668 4.50886 2.97229C4.4192 3.70188 4.01426 4.21653 3.34143 4.51701C3.26828 4.54963 3.24343 4.5884 3.24374 4.66625C3.24621 5.47631 3.24513 6.28636 3.24528 7.09642C3.24528 7.21166 3.24744 7.2135 3.36102 7.2135C4.98602 7.2135 6.61102 7.2135 8.23602 7.2135C8.34775 7.2135 8.34821 7.21319 8.34821 7.10242C8.34837 6.29236 8.34698 5.48231 8.35022 4.67225C8.35053 4.58671 8.32213 4.54717 8.24405 4.51455C7.46118 4.18776 6.98818 3.39063 7.08139 2.55241C7.15408 1.89806 7.48571 1.40818 8.05099 1.07354C8.27275 0.942305 8.51704 0.874146 8.76982 0.833374Z" fill="#959595"/>
</svg>
