<svg width="48" height="49" viewBox="0 0 48 49" fill="none" xmlns="http://www.w3.org/2000/svg">
<path d="M33.5 7.39002V4.27002C33.5 3.45002 32.82 2.77002 32 2.77002C31.18 2.77002 30.5 3.45002 30.5 4.27002V7.27002H17.5V4.27002C17.5 3.45002 16.82 2.77002 16 2.77002C15.18 2.77002 14.5 3.45002 14.5 4.27002V7.39002C9.09997 7.89002 6.47997 11.11 6.07997 15.89C6.03997 16.47 6.51997 16.95 7.07997 16.95H40.92C41.5 16.95 41.98 16.45 41.92 15.89C41.52 11.11 38.9 7.89002 33.5 7.39002Z" fill="#1572D3"/>
<path d="M40 19.95H8C6.9 19.95 6 20.85 6 21.95V34.27C6 40.27 9 44.27 16 44.27H32C39 44.27 42 40.27 42 34.27V21.95C42 20.85 41.1 19.95 40 19.95ZM18.42 36.69C18.32 36.77 18.22 36.87 18.12 36.93C18 37.01 17.88 37.07 17.76 37.11C17.64 37.17 17.52 37.21 17.4 37.23C17.26 37.25 17.14 37.27 17 37.27C16.74 37.27 16.48 37.21 16.24 37.11C15.98 37.01 15.78 36.87 15.58 36.69C15.22 36.31 15 35.79 15 35.27C15 34.75 15.22 34.23 15.58 33.85C15.78 33.67 15.98 33.53 16.24 33.43C16.6 33.27 17 33.23 17.4 33.31C17.52 33.33 17.64 33.37 17.76 33.43C17.88 33.47 18 33.53 18.12 33.61C18.22 33.69 18.32 33.77 18.42 33.85C18.78 34.23 19 34.75 19 35.27C19 35.79 18.78 36.31 18.42 36.69ZM18.42 29.69C18.04 30.05 17.52 30.27 17 30.27C16.48 30.27 15.96 30.05 15.58 29.69C15.22 29.31 15 28.79 15 28.27C15 27.75 15.22 27.23 15.58 26.85C16.14 26.29 17.02 26.11 17.76 26.43C18.02 26.53 18.24 26.67 18.42 26.85C18.78 27.23 19 27.75 19 28.27C19 28.79 18.78 29.31 18.42 29.69ZM25.42 36.69C25.04 37.05 24.52 37.27 24 37.27C23.48 37.27 22.96 37.05 22.58 36.69C22.22 36.31 22 35.79 22 35.27C22 34.75 22.22 34.23 22.58 33.85C23.32 33.11 24.68 33.11 25.42 33.85C25.78 34.23 26 34.75 26 35.27C26 35.79 25.78 36.31 25.42 36.69ZM25.42 29.69C25.32 29.77 25.22 29.85 25.12 29.93C25 30.01 24.88 30.07 24.76 30.11C24.64 30.17 24.52 30.21 24.4 30.23C24.26 30.25 24.14 30.27 24 30.27C23.48 30.27 22.96 30.05 22.58 29.69C22.22 29.31 22 28.79 22 28.27C22 27.75 22.22 27.23 22.58 26.85C22.76 26.67 22.98 26.53 23.24 26.43C23.98 26.11 24.86 26.29 25.42 26.85C25.78 27.23 26 27.75 26 28.27C26 28.79 25.78 29.31 25.42 29.69ZM32.42 36.69C32.04 37.05 31.52 37.27 31 37.27C30.48 37.27 29.96 37.05 29.58 36.69C29.22 36.31 29 35.79 29 35.27C29 34.75 29.22 34.23 29.58 33.85C30.32 33.11 31.68 33.11 32.42 33.85C32.78 34.23 33 34.75 33 35.27C33 35.79 32.78 36.31 32.42 36.69ZM32.42 29.69C32.32 29.77 32.22 29.85 32.12 29.93C32 30.01 31.88 30.07 31.76 30.11C31.64 30.17 31.52 30.21 31.4 30.23C31.26 30.25 31.12 30.27 31 30.27C30.48 30.27 29.96 30.05 29.58 29.69C29.22 29.31 29 28.79 29 28.27C29 27.75 29.22 27.23 29.58 26.85C29.78 26.67 29.98 26.53 30.24 26.43C30.6 26.27 31 26.23 31.4 26.31C31.52 26.33 31.64 26.37 31.76 26.43C31.88 26.47 32 26.53 32.12 26.61C32.22 26.69 32.32 26.77 32.42 26.85C32.78 27.23 33 27.75 33 28.27C33 28.79 32.78 29.31 32.42 29.69Z" fill="#1572D3"/>
</svg>
