<svg width="24" height="25" viewBox="0 0 24 25" fill="none" xmlns="http://www.w3.org/2000/svg">
<path d="M21.97 18.5136C21.97 18.8736 21.89 19.2436 21.72 19.6036C21.55 19.9636 21.33 20.3036 21.04 20.6236C20.55 21.1636 20.01 21.5536 19.4 21.8036C18.8 22.0536 18.15 22.1836 17.45 22.1836C16.43 22.1836 15.34 21.9436 14.19 21.4536C13.04 20.9636 11.89 20.3036 10.75 19.4736C9.6 18.6336 8.51 17.7036 7.47 16.6736C6.44 15.6336 5.51 14.5436 4.68 13.4036C3.86 12.2636 3.2 11.1236 2.72 9.99359C2.24 8.85359 2 7.76359 2 6.72359C2 6.04359 2.12 5.39359 2.36 4.79359C2.6 4.18359 2.98 3.62359 3.51 3.12359C4.15 2.49359 4.85 2.18359 5.59 2.18359C5.87 2.18359 6.15 2.24359 6.4 2.36359C6.66 2.48359 6.89 2.66359 7.07 2.92359L9.39 6.19359C9.57 6.44359 9.7 6.67359 9.79 6.89359C9.88 7.10359 9.93 7.31359 9.93 7.50359C9.93 7.74359 9.86 7.98359 9.72 8.21359C9.59 8.44359 9.4 8.68359 9.16 8.92359L8.4 9.71359C8.29 9.82359 8.24 9.95359 8.24 10.1136C8.24 10.1936 8.25 10.2636 8.27 10.3436C8.3 10.4236 8.33 10.4836 8.35 10.5436C8.53 10.8736 8.84 11.3036 9.28 11.8236C9.73 12.3436 10.21 12.8736 10.73 13.4036C11.27 13.9336 11.79 14.4236 12.32 14.8736C12.84 15.3136 13.27 15.6136 13.61 15.7936C13.66 15.8136 13.72 15.8436 13.79 15.8736C13.87 15.9036 13.95 15.9136 14.04 15.9136C14.21 15.9136 14.34 15.8536 14.45 15.7436L15.21 14.9936C15.46 14.7436 15.7 14.5536 15.93 14.4336C16.16 14.2936 16.39 14.2236 16.64 14.2236C16.83 14.2236 17.03 14.2636 17.25 14.3536C17.47 14.4436 17.7 14.5736 17.95 14.7436L21.26 17.0936C21.52 17.2736 21.7 17.4836 21.81 17.7336C21.91 17.9836 21.97 18.2336 21.97 18.5136Z" stroke="#D6D6D6" stroke-width="1.5" stroke-miterlimit="10"/>
</svg>
