<svg width="25" height="25" viewBox="0 0 25 25" fill="none" xmlns="http://www.w3.org/2000/svg">
<g clip-path="url(#clip0_5310_1778)">
<path d="M6.34706 13.2705H12.4882C12.947 13.2705 13.3118 12.9177 13.3118 12.447V4.51764C13.3118 4.05882 12.947 3.70588 12.4882 3.70588C12.0294 3.70588 11.6765 4.05882 11.6765 4.51764V11.6353H6.34706C5.87646 11.6353 5.52352 11.9882 5.52352 12.447C5.52352 12.9177 5.87646 13.2705 6.34706 13.2705ZM12.5 24C19.0647 24 24.5 18.5529 24.5 12C24.5 5.43529 19.0529 0 12.4882 0C5.93529 0 0.5 5.43529 0.5 12C0.5 18.5529 5.94705 24 12.5 24ZM12.5 22C6.94705 22 2.51176 17.5529 2.51176 12C2.51176 6.44705 6.93529 2 12.4882 2C18.0411 2 22.5 6.44705 22.5 12C22.5 17.5529 18.0529 22 12.5 22Z" fill="#FD7702"/>
</g>
<defs>
<clipPath id="clip0_5310_1778">
<rect width="24" height="24.0117" fill="white" transform="translate(0.5)"/>
</clipPath>
</defs>
</svg>
