<svg width="18" height="17" viewBox="0 0 18 17" fill="none" xmlns="http://www.w3.org/2000/svg">
<path d="M8.41698 16.1327C6.19429 16.1327 3.9716 16.1329 1.74869 16.1325C1.51493 16.1325 1.28348 16.1122 1.06726 16.0139C0.810876 15.8977 0.669051 15.7127 0.669685 15.4143C0.674124 13.0893 0.677929 10.7645 0.667994 8.43954C0.665669 7.91789 0.821021 7.45712 1.08205 7.02087C1.30081 6.65542 1.59038 6.34726 1.88629 6.04459C3.04223 4.86265 4.37466 3.92208 5.83476 3.15547C6.72882 2.68624 7.65734 2.29882 8.61481 1.98093C9.686 1.6252 10.7809 1.36396 11.8945 1.18113C12.5825 1.06847 13.2743 0.987521 13.9691 0.933413C14.8718 0.863029 15.7768 0.849713 16.6819 0.868313C17.0934 0.876767 17.3766 1.2327 17.3295 1.64317C17.2741 2.12529 17.2338 2.6091 17.1862 3.09206C17.1403 3.55769 17.0926 4.02311 17.0473 4.48874C17.0011 4.96495 16.9573 5.44115 16.9112 5.91735C16.8671 6.376 16.8216 6.83466 16.7764 7.29332C16.7375 7.68878 16.698 8.08424 16.6591 8.47991C16.6117 8.95949 16.5646 9.43907 16.5177 9.91865C16.4729 10.3773 16.4289 10.836 16.3839 11.2944C16.3376 11.767 16.29 12.2394 16.2435 12.712C16.2053 13.1005 16.17 13.4894 16.1298 13.8779C16.0753 14.4061 16.044 14.9375 15.9605 15.4619C15.8903 15.9021 15.5938 16.1331 15.1487 16.1329C12.9048 16.1325 10.6608 16.1327 8.41698 16.1327ZM3.04857 8.37C3.07415 8.4036 3.11093 8.40382 3.14305 8.41058C3.41212 8.46849 3.68139 8.50125 3.95934 8.48075C4.55179 8.437 5.04215 8.19478 5.43571 7.75472C5.49151 7.69237 5.54836 7.67208 5.62783 7.67208C7.86426 7.67335 10.1009 7.67314 12.3373 7.67292C13.4115 7.67292 14.4858 7.67166 15.56 7.67483C15.6636 7.67504 15.6984 7.64672 15.7039 7.53955C15.717 7.29036 15.7475 7.04222 15.7699 6.79344C15.8102 6.34853 15.8502 5.90382 15.8897 5.4589C15.9212 5.10508 15.9523 4.75105 15.9825 4.39723C16.0222 3.93476 16.0624 3.4723 16.0996 3.00963C16.1264 2.67652 16.1457 2.34278 16.1748 2.01009C16.1898 1.84016 16.1856 1.82832 16.0148 1.826C15.4196 1.81754 14.8259 1.83847 14.232 1.88285C13.6808 1.92407 13.1321 1.98389 12.5859 2.06526C11.7605 2.18806 10.9436 2.35462 10.1364 2.56809C8.91051 2.89232 7.72392 3.32075 6.58932 3.88847C5.68258 4.34227 4.82888 4.8804 4.0386 5.51681C3.87416 5.64934 3.71542 5.78905 3.55711 5.92876C3.46179 6.01288 3.46475 6.01521 3.56853 6.07862C3.61355 6.10609 3.65878 6.13357 3.70105 6.16527C4.17239 6.51804 4.39897 6.99825 4.43998 7.57718C4.44737 7.68201 4.39707 7.74923 4.32669 7.81306C4.07897 8.03816 3.78982 8.18569 3.46897 8.27256C3.33159 8.30955 3.19103 8.33724 3.04857 8.37ZM8.40049 15.026C8.40049 15.0262 8.40049 15.0262 8.40049 15.0264C10.5627 15.0264 12.725 15.0264 14.8872 15.026C14.9327 15.026 14.9796 15.0264 15.0235 15.0163C15.1208 14.9941 15.1956 14.9085 15.189 14.8364C15.181 14.7491 15.1064 14.6957 14.9872 14.6933C14.9132 14.6919 14.8392 14.6925 14.7653 14.6925C13.5468 14.6925 12.3285 14.6929 11.11 14.6929C8.05322 14.6929 4.99649 14.6927 1.93998 14.6927C1.89432 14.6927 1.84803 14.6912 1.8028 14.6963C1.71466 14.706 1.66055 14.7559 1.65231 14.8455C1.64407 14.937 1.6948 14.9933 1.77786 15.0163C1.82077 15.0283 1.86854 15.0258 1.91398 15.0258C4.07601 15.0262 6.23825 15.026 8.40049 15.026ZM13.7687 9.0527C13.7687 9.05249 13.7687 9.05249 13.7687 9.05228C13.4451 9.05228 13.1213 9.05122 12.7977 9.05249C12.5544 9.05355 12.3779 9.21608 12.372 9.44161C12.3663 9.65678 12.5396 9.84066 12.7778 9.84299C13.4322 9.84933 14.0866 9.84911 14.7407 9.84277C14.987 9.84045 15.1544 9.66079 15.148 9.43527C15.1419 9.21228 14.9639 9.05312 14.7183 9.0527C14.4019 9.05228 14.0853 9.0527 13.7687 9.0527Z" fill="#959595"/>
</svg>
