<svg width="100%" height="100%" viewBox="0 0 48 49" fill="none" xmlns="http://www.w3.org/2000/svg">
<path d="M44 42.77H42V20.23C42 18.99 41.44 17.83 40.46 17.07L38 15.15L37.96 10.25C37.96 9.15002 37.06 8.27002 35.96 8.27002H29.14L26.46 6.19002C25.02 5.05002 22.98 5.05002 21.54 6.19002L7.54 17.07C6.56 17.83 6 18.99 6 20.21L5.9 42.77H4C3.18 42.77 2.5 43.45 2.5 44.27C2.5 45.09 3.18 45.77 4 45.77H44C44.82 45.77 45.5 45.09 45.5 44.27C45.5 43.45 44.82 42.77 44 42.77ZM13 25.77V22.77C13 21.67 13.9 20.77 15 20.77H19C20.1 20.77 21 21.67 21 22.77V25.77C21 26.87 20.1 27.77 19 27.77H15C13.9 27.77 13 26.87 13 25.77ZM29 42.77H19V37.27C19 35.61 20.34 34.27 22 34.27H26C27.66 34.27 29 35.61 29 37.27V42.77ZM35 25.77C35 26.87 34.1 27.77 33 27.77H29C27.9 27.77 27 26.87 27 25.77V22.77C27 21.67 27.9 20.77 29 20.77H33C34.1 20.77 35 21.67 35 22.77V25.77Z" fill="currentColor"/>
</svg>
