<svg width="29" height="15" viewBox="0 0 29 15" fill="none" xmlns="http://www.w3.org/2000/svg">
<g clip-path="url(#clip0_5310_1790)">
<path d="M1.3009 14.8194H2.57044C3.15637 14.8194 3.44934 14.5362 3.61536 14.1162C5.40247 9.68261 7.20911 5.23925 9.00598 0.805664C9.1427 0.483398 8.98645 0.200195 8.64465 0.200195H8.00989C7.66809 0.200195 7.45325 0.366211 7.30676 0.65918C5.07044 5.01464 2.85364 9.37011 0.61731 13.7354C0.343873 14.2334 0.539185 14.8194 1.3009 14.8194ZM26.5743 14.8194H27.8536C28.6056 14.8194 28.8009 14.2334 28.5275 13.7354C26.3107 9.37011 24.0743 5.01464 21.8478 0.65918C21.6915 0.366211 21.4767 0.200195 21.1349 0.200195H20.5001C20.1583 0.200195 20.0118 0.483398 20.1388 0.805664C21.9357 5.23925 23.7423 9.68261 25.5294 14.1162C25.6954 14.5362 25.9884 14.8194 26.5743 14.8194ZM14.3478 2.86621H14.7775C15.1779 2.86621 15.4904 2.56347 15.4904 2.15332C15.4904 1.74316 15.4904 1.32324 15.4904 0.913086C15.4904 0.50293 15.1779 0.200195 14.7775 0.200195H14.3478C13.9474 0.200195 13.6349 0.50293 13.6349 0.913086C13.6349 1.32324 13.6349 1.74316 13.6349 2.15332C13.6349 2.56347 13.9474 2.86621 14.3478 2.86621ZM14.3478 8.43261H14.7775C15.1779 8.43261 15.4904 8.13964 15.4904 7.72949C15.4904 7.04589 15.4904 6.34277 15.4904 5.65918C15.4904 5.24902 15.1779 4.95605 14.7775 4.95605H14.3478C13.9474 4.95605 13.6349 5.24902 13.6349 5.65918C13.6349 6.34277 13.6349 7.04589 13.6349 7.72949C13.6349 8.13964 13.9474 8.43261 14.3478 8.43261ZM14.3478 14.8194H14.7775C15.1779 14.8194 15.4904 14.5166 15.4904 14.1065C15.4904 13.1787 15.4904 12.2412 15.4904 11.3037C15.4904 10.8936 15.1779 10.6006 14.7775 10.6006H14.3478C13.9474 10.6006 13.6349 10.8936 13.6349 11.3037C13.6349 12.2412 13.6349 13.1787 13.6349 14.1065C13.6349 14.5166 13.9474 14.8194 14.3478 14.8194Z" fill="#FD7702"/>
</g>
<defs>
<clipPath id="clip0_5310_1790">
<rect width="28.145" height="14.6387" fill="white" transform="translate(0.5 0.180664)"/>
</clipPath>
</defs>
</svg>
