<svg width="24" height="25" viewBox="0 0 24 25" fill="none" xmlns="http://www.w3.org/2000/svg">
<path d="M18.4699 17.33L18.8599 20.49C18.9599 21.32 18.0699 21.9 17.3599 21.47L13.8999 19.41C13.6599 19.27 13.5999 18.97 13.7299 18.73C14.2299 17.81 14.4999 16.77 14.4999 15.73C14.4999 12.07 11.3599 9.09 7.49989 9.09C6.70989 9.09 5.93989 9.21 5.21989 9.45C4.84989 9.57 4.48989 9.23 4.57989 8.85C5.48989 5.21 8.98989 2.5 13.1699 2.5C18.0499 2.5 21.9999 6.19 21.9999 10.74C21.9999 13.44 20.6099 15.83 18.4699 17.33Z" fill="#1572D3"/>
<path d="M13 15.7301C13 16.9201 12.56 18.0201 11.82 18.8901C10.83 20.0901 9.26 20.8601 7.5 20.8601L4.89 22.4101C4.45 22.6801 3.89 22.3101 3.95 21.8001L4.2 19.8301C2.86 18.9001 2 17.4101 2 15.7301C2 13.9701 2.94 12.4201 4.38 11.5001C5.27 10.9201 6.34 10.5901 7.5 10.5901C10.54 10.5901 13 12.8901 13 15.7301Z" fill="#1572D3"/>
</svg>
