<svg width="18" height="19" viewBox="0 0 18 19" fill="none" xmlns="http://www.w3.org/2000/svg">
<path d="M3.06641 18.499H14.9121C16.9629 18.499 17.9785 17.4834 17.9785 15.4717V3.54786C17.9785 1.53614 16.9629 0.520508 14.9121 0.520508H3.06641C1.02539 0.520508 0 1.52637 0 3.54786V15.4717C0 17.4932 1.02539 18.499 3.06641 18.499ZM3.08594 16.9268C2.10938 16.9268 1.57227 16.4092 1.57227 15.3936V3.62598C1.57227 2.61036 2.10938 2.09278 3.08594 2.09278H14.8926C15.8594 2.09278 16.4062 2.61036 16.4062 3.62598V15.3936C16.4062 16.4092 15.8594 16.9268 14.8926 16.9268H3.08594ZM5.17578 10.3252H12.832C13.3789 10.3252 13.7598 10.0322 13.7598 9.51465C13.7598 8.98731 13.3984 8.68457 12.832 8.68457H5.17578C4.59961 8.68457 4.23828 8.98731 4.23828 9.51465C4.23828 10.0322 4.62891 10.3252 5.17578 10.3252Z" fill="black" fill-opacity="0.4"/>
</svg>
