<svg width="48" height="49" viewBox="0 0 48 49" fill="none" xmlns="http://www.w3.org/2000/svg">
<path d="M37.6201 12.77H40.3401C39.9601 12.23 39.5601 11.73 39.1401 11.23L37.6201 12.77Z" fill="#1572D3"/>
<path d="M37.04 9.11003C36.54 8.69003 36.04 8.29003 35.5 7.91003V10.63L37.04 9.11003Z" fill="#1572D3"/>
<path d="M39.16 11.23L45.06 5.33002C45.64 4.75002 45.64 3.79002 45.06 3.21002C44.48 2.63002 43.52 2.63002 42.94 3.21002L37.04 9.11003C37.8 9.77003 38.5 10.49 39.16 11.23Z" fill="#1572D3"/>
<path d="M35.5 6.27002C35.5 5.45002 34.82 4.77002 34 4.77002C33.2 4.77002 32.56 5.41002 32.52 6.19002C33.56 6.69002 34.56 7.25002 35.5 7.91002V6.27002Z" fill="#1572D3"/>
<path d="M43.4998 14.27C43.4998 13.45 42.8198 12.77 41.9998 12.77H40.3398C40.9998 13.71 41.5798 14.71 42.0598 15.75C42.8598 15.71 43.4998 15.07 43.4998 14.27Z" fill="#1572D3"/>
<path d="M25.5 29.77H26.1C26.88 29.77 27.5 29.07 27.5 28.21C27.5 27.13 27.2 26.97 26.52 26.73L25.5 26.37V29.77Z" fill="#1572D3"/>
<path d="M42.08 15.75C42.06 15.75 42.04 15.77 42 15.77H34C33.8 15.77 33.62 15.73 33.42 15.65C33.06 15.49 32.76 15.21 32.6 14.83C32.54 14.65 32.5 14.47 32.5 14.27V6.27002C32.5 6.25002 32.52 6.23002 32.52 6.19002C29.92 4.97002 27.04 4.27002 24 4.27002C12.96 4.27002 4 13.23 4 24.27C4 35.31 12.96 44.27 24 44.27C35.04 44.27 44 35.31 44 24.27C44 21.23 43.3 18.35 42.08 15.75ZM27.5 23.91C28.78 24.35 30.5 25.29 30.5 28.23C30.5 30.73 28.52 32.79 26.1 32.79H25.5V33.29C25.5 34.11 24.82 34.79 24 34.79C23.18 34.79 22.5 34.11 22.5 33.29V32.79H22.34C19.68 32.79 17.5 30.55 17.5 27.79C17.5 26.95 18.18 26.27 19 26.27C19.82 26.27 20.5 26.95 20.5 27.77C20.5 28.87 21.32 29.77 22.34 29.77H22.5V25.33L20.5 24.63C19.22 24.19 17.5 23.25 17.5 20.31C17.5 17.81 19.48 15.75 21.9 15.75H22.5V15.27C22.5 14.45 23.18 13.77 24 13.77C24.82 13.77 25.5 14.45 25.5 15.27V15.77H25.66C28.32 15.77 30.5 18.01 30.5 20.77C30.5 21.59 29.82 22.27 29 22.27C28.18 22.27 27.5 21.59 27.5 20.77C27.5 19.67 26.68 18.77 25.66 18.77H25.5V23.21L27.5 23.91Z" fill="#1572D3"/>
<path d="M20.5 20.33C20.5 21.41 20.8 21.57 21.48 21.81L22.5 22.17V18.77H21.9C21.14 18.77 20.5 19.47 20.5 20.33Z" fill="#1572D3"/>
</svg>
