<svg width="15" height="15" viewBox="0 0 15 15" fill="none" xmlns="http://www.w3.org/2000/svg">
<path d="M14.7281 1.04991L8.6944 14.2144C8.64391 14.3247 8.5583 14.4151 8.45095 14.4716C8.34361 14.528 8.22058 14.5473 8.10111 14.5264C7.98165 14.5055 7.87248 14.4456 7.79068 14.356C7.70888 14.2665 7.65907 14.1523 7.64903 14.0315L7.1389 7.9118L1.01922 7.40167C0.898358 7.39163 0.784229 7.34182 0.694684 7.26002C0.60514 7.17822 0.54523 7.06905 0.524324 6.94958C0.503419 6.83012 0.522696 6.70709 0.579142 6.59975C0.635588 6.4924 0.726019 6.40679 0.836292 6.3563L14.0008 0.322576C14.1026 0.275936 14.2162 0.261553 14.3263 0.281356C14.4365 0.30116 14.538 0.354204 14.6172 0.433363C14.6963 0.512523 14.7494 0.614009 14.7692 0.724192C14.789 0.834375 14.7746 0.947979 14.728 1.04975L14.7281 1.04991Z" fill="#080809"/>
</svg>
