<svg width="19" height="19" viewBox="0 0 19 19" fill="none" xmlns="http://www.w3.org/2000/svg">
<path d="M17.8437 1.70215C16.8476 0.706054 15.4414 0.549805 13.7715 0.549805H6.16407C4.52344 0.549805 3.11719 0.706054 2.1211 1.70215C1.125 2.69824 0.978516 4.09472 0.978516 5.72558V13.2647C0.978516 14.9346 1.125 16.3213 2.1211 17.3174C3.11719 18.3135 4.52344 18.4698 6.1836 18.4698H13.7715C15.4414 18.4698 16.8476 18.3135 17.8437 17.3174C18.8398 16.3213 18.9863 14.9346 18.9863 13.2647V5.75488C18.9863 4.08496 18.8398 2.68847 17.8437 1.70215ZM17.414 5.48144V13.5283C17.414 14.544 17.2871 15.5791 16.6914 16.1748C16.1055 16.7608 15.0508 16.8975 14.0449 16.8975H5.91993C4.91407 16.8975 3.85938 16.7608 3.26368 16.1748C2.67774 15.5791 2.55079 14.544 2.55079 13.5283V5.51074C2.55079 4.48535 2.67774 3.43066 3.26368 2.84472C3.85938 2.24902 4.92383 2.12207 5.94922 2.12207H14.0449C15.0508 2.12207 16.1055 2.25879 16.6914 2.84472C17.2871 3.44043 17.414 4.47558 17.414 5.48144ZM5.46094 9.49511C5.46094 9.97363 5.80274 10.2959 6.30079 10.2959H9.17188V13.1768C9.17188 13.6651 9.49413 14.0069 9.97266 14.0069C10.4609 14.0069 10.8027 13.6748 10.8027 13.1768V10.2959H13.6836C14.1719 10.2959 14.5137 9.97363 14.5137 9.49511C14.5137 9.00683 14.1719 8.66504 13.6836 8.66504H10.8027V5.79394C10.8027 5.29589 10.4609 4.9541 9.97266 4.9541C9.49413 4.9541 9.17188 5.29589 9.17188 5.79394V8.66504H6.30079C5.79297 8.66504 5.46094 9.00683 5.46094 9.49511Z" fill="#1D1D1D" fill-opacity="0.85"/>
</svg>
