<svg width="17" height="17" viewBox="0 0 17 17" fill="none" xmlns="http://www.w3.org/2000/svg">
<g clip-path="url(#clip0_5203_589)">
<path d="M0 8.49514C0 8.97366 0.400391 9.36428 0.869141 9.36428H7.1875V15.6826C7.1875 16.1514 7.57812 16.5518 8.05664 16.5518C8.53516 16.5518 8.93555 16.1514 8.93555 15.6826V9.36428H15.2441C15.7129 9.36428 16.1133 8.97366 16.1133 8.49514C16.1133 8.01662 15.7129 7.61623 15.2441 7.61623H8.93555V1.30764C8.93555 0.83889 8.53516 0.438499 8.05664 0.438499C7.57812 0.438499 7.1875 0.83889 7.1875 1.30764V7.61623H0.869141C0.400391 7.61623 0 8.01662 0 8.49514Z" fill="#1572D3"/>
</g>
<defs>
<clipPath id="clip0_5203_589">
<rect width="16.1133" height="16.123" fill="white" transform="translate(0 0.438499)"/>
</clipPath>
</defs>
</svg>
