<svg version="1.1" xmlns="http://www.w3.org/2000/svg" width="1em" height="1em" viewBox="0 0 32 32">
  <title>social media</title>
  <path fill="transparent" stroke="currentColor" stroke-width="1.5" stroke-linecap="round" stroke-linejoin="round" d="M16 3C8.82 3 3 8.82 3 16s5.82 13 13 13c1.787 0 3.5-.288 5.056-.813L29 29l-1.188-4.744C27.707 22.624 29 19.453 29 16c0-7.18-5.82-13-13-13zM16 9c1.5 0 2.722 1.222 2.722 2.722S17.5 14.444 16 14.444 13.278 13.222 13.278 11.722 14.5 9 16 9zm0 6.556c3.282 0 6.556 1.65 6.556 4.944v1.1c0 .45-.365.816-.816.816H10.26c-.45 0-.816-.365-.816-.816v-1.1c0-3.294 3.274-4.944 6.556-4.944z"></path>
</svg>