<svg width="136" height="25" viewBox="0 0 136 25" fill="none" xmlns="http://www.w3.org/2000/svg">
<path d="M11.3274 1.86274C11.6026 1.30531 12.3974 1.30531 12.6726 1.86274L15.3522 7.29232C15.4615 7.51367 15.6726 7.6671 15.9169 7.7026L21.9088 8.57327C22.524 8.66266 22.7696 9.41864 22.3245 9.85254L17.9887 14.0789C17.8119 14.2512 17.7313 14.4994 17.773 14.7427L18.7965 20.7104C18.9016 21.3231 18.2585 21.7903 17.7083 21.501L12.349 18.6835C12.1305 18.5686 11.8695 18.5686 11.651 18.6835L6.29168 21.501C5.74146 21.7903 5.09839 21.3231 5.20347 20.7104L6.22701 14.7427C6.26874 14.4994 6.18807 14.2512 6.01131 14.0789L1.67553 9.85254C1.2304 9.41864 1.47603 8.66266 2.09119 8.57327L8.08309 7.7026C8.32737 7.6671 8.53854 7.51367 8.64779 7.29232L11.3274 1.86274Z" fill="#EFBF14"/>
<path d="M39.3274 1.86274C39.6026 1.30531 40.3974 1.30531 40.6726 1.86274L43.3522 7.29232C43.4615 7.51367 43.6726 7.6671 43.9169 7.7026L49.9088 8.57327C50.524 8.66266 50.7696 9.41864 50.3245 9.85254L45.9887 14.0789C45.8119 14.2512 45.7313 14.4994 45.773 14.7427L46.7965 20.7104C46.9016 21.3231 46.2585 21.7903 45.7083 21.501L40.349 18.6835C40.1305 18.5686 39.8695 18.5686 39.651 18.6835L34.2917 21.501C33.7415 21.7903 33.0984 21.3231 33.2035 20.7104L34.227 14.7427C34.2687 14.4994 34.1881 14.2512 34.0113 14.0789L29.6755 9.85254C29.2304 9.41864 29.476 8.66266 30.0912 8.57327L36.0831 7.7026C36.3274 7.6671 36.5385 7.51367 36.6478 7.29232L39.3274 1.86274Z" fill="#EFBF14"/>
<path d="M67.3274 1.86274C67.6026 1.30531 68.3974 1.30531 68.6726 1.86274L71.3522 7.29232C71.4615 7.51367 71.6726 7.6671 71.9169 7.7026L77.9088 8.57327C78.524 8.66266 78.7696 9.41864 78.3245 9.85254L73.9887 14.0789C73.8119 14.2512 73.7313 14.4994 73.773 14.7427L74.7965 20.7104C74.9016 21.3231 74.2585 21.7903 73.7083 21.501L68.349 18.6835C68.1305 18.5686 67.8695 18.5686 67.651 18.6835L62.2917 21.501C61.7415 21.7903 61.0984 21.3231 61.2035 20.7104L62.227 14.7427C62.2687 14.4994 62.1881 14.2512 62.0113 14.0789L57.6755 9.85254C57.2304 9.41864 57.476 8.66266 58.0912 8.57327L64.0831 7.7026C64.3274 7.6671 64.5385 7.51367 64.6478 7.29232L67.3274 1.86274Z" fill="#EFBF14"/>
<path d="M95.3274 1.86274C95.6026 1.30531 96.3974 1.30531 96.6726 1.86274L99.3522 7.29232C99.4615 7.51367 99.6726 7.6671 99.9169 7.7026L105.909 8.57327C106.524 8.66266 106.77 9.41864 106.324 9.85254L101.989 14.0789C101.812 14.2512 101.731 14.4994 101.773 14.7427L102.797 20.7104C102.902 21.3231 102.259 21.7903 101.708 21.501L96.349 18.6835C96.1305 18.5686 95.8695 18.5686 95.651 18.6835L90.2917 21.501C89.7415 21.7903 89.0984 21.3231 89.2035 20.7104L90.227 14.7427C90.2687 14.4994 90.1881 14.2512 90.0113 14.0789L85.6755 9.85254C85.2304 9.41864 85.476 8.66266 86.0912 8.57327L92.0831 7.7026C92.3274 7.6671 92.5385 7.51367 92.6478 7.29232L95.3274 1.86274Z" fill="#EFBF14"/>
<path d="M123.327 1.86274C123.603 1.30531 124.397 1.30531 124.673 1.86274L127.352 7.29232C127.461 7.51367 127.673 7.6671 127.917 7.7026L133.909 8.57327C134.524 8.66266 134.77 9.41864 134.324 9.85254L129.989 14.0789C129.812 14.2512 129.731 14.4994 129.773 14.7427L130.797 20.7104C130.902 21.3231 130.259 21.7903 129.708 21.501L124.349 18.6835C124.131 18.5686 123.869 18.5686 123.651 18.6835L118.292 21.501C117.741 21.7903 117.098 21.3231 117.203 20.7104L118.227 14.7427C118.269 14.4994 118.188 14.2512 118.011 14.0789L113.676 9.85254C113.23 9.41864 113.476 8.66266 114.091 8.57327L120.083 7.7026C120.327 7.6671 120.539 7.51367 120.648 7.29232L123.327 1.86274Z" fill="#EFBF14"/>
</svg>
