<svg width="24" height="25" viewBox="0 0 24 25" fill="none" xmlns="http://www.w3.org/2000/svg">
<path d="M11.9402 2.71008L9.5302 8.32008H7.1202C6.7202 8.32008 6.3302 8.35007 5.9502 8.43007L6.9502 6.03008L6.9902 5.94008L7.0502 5.78008C7.0802 5.71008 7.1002 5.65007 7.1302 5.60008C8.2902 2.91007 9.5902 2.07008 11.9402 2.71008Z" fill="#1572D3"/>
<path d="M18.7301 8.59002L18.7101 8.58002C18.1101 8.41002 17.5001 8.32002 16.8801 8.32002H10.6201L12.8701 3.09002L12.9001 3.02002C13.0401 3.07002 13.1901 3.14002 13.3401 3.19002L15.5501 4.12002C16.7801 4.63002 17.6401 5.16002 18.1701 5.80002C18.2601 5.92002 18.3401 6.03002 18.4201 6.16002C18.5101 6.30002 18.5801 6.44002 18.6201 6.59002C18.6601 6.68002 18.6901 6.76002 18.7101 6.85002C18.8601 7.36002 18.8701 7.94002 18.7301 8.59002Z" fill="#1572D3"/>
<path d="M12.52 18.1601H12.77C13.07 18.1601 13.32 17.8901 13.32 17.5601C13.32 17.1401 13.2 17.0801 12.94 16.9801L12.52 16.8301V18.1601Z" fill="#1572D3"/>
<path d="M18.2902 10.0201C17.8402 9.89007 17.3702 9.82007 16.8802 9.82007H7.12023C6.44023 9.82007 5.80023 9.95007 5.20023 10.2101C3.46023 10.9601 2.24023 12.6901 2.24023 14.7001V16.6501C2.24023 16.8901 2.26023 17.1201 2.29023 17.3601C2.51023 20.5401 4.21023 22.2401 7.39023 22.4501C7.62023 22.4801 7.85023 22.5001 8.10023 22.5001H15.9002C19.6002 22.5001 21.5502 20.7401 21.7402 17.2401C21.7502 17.0501 21.7602 16.8501 21.7602 16.6501V14.7001C21.7602 12.4901 20.2902 10.6301 18.2902 10.0201ZM13.2802 16.0001C13.7402 16.1601 14.3602 16.5001 14.3602 17.5601C14.3602 18.4701 13.6502 19.2001 12.7702 19.2001H12.5202V19.4201C12.5202 19.7101 12.2902 19.9401 12.0002 19.9401C11.7102 19.9401 11.4802 19.7101 11.4802 19.4201V19.2001H11.3902C10.4302 19.2001 9.64023 18.3901 9.64023 17.3901C9.64023 17.1001 9.87023 16.8701 10.1602 16.8701C10.4502 16.8701 10.6802 17.1001 10.6802 17.3901C10.6802 17.8101 11.0002 18.1601 11.3902 18.1601H11.4802V16.4701L10.7202 16.2001C10.2602 16.0401 9.64023 15.7001 9.64023 14.6401C9.64023 13.7301 10.3502 13.0001 11.2302 13.0001H11.4802V12.7801C11.4802 12.4901 11.7102 12.2601 12.0002 12.2601C12.2902 12.2601 12.5202 12.4901 12.5202 12.7801V13.0001H12.6102C13.5702 13.0001 14.3602 13.8101 14.3602 14.8101C14.3602 15.1001 14.1302 15.3301 13.8402 15.3301C13.5502 15.3301 13.3202 15.1001 13.3202 14.8101C13.3202 14.3901 13.0002 14.0401 12.6102 14.0401H12.5202V15.7301L13.2802 16.0001Z" fill="#1572D3"/>
<path d="M10.6802 14.64C10.6802 15.06 10.8002 15.12 11.0602 15.22L11.4802 15.37V14.04H11.2302C10.9202 14.04 10.6802 14.31 10.6802 14.64Z" fill="#1572D3"/>
</svg>
