<svg width="18" height="19" viewBox="0 0 18 19" fill="none" xmlns="http://www.w3.org/2000/svg">
<path fill-rule="evenodd" clip-rule="evenodd" d="M18 9.25542C18 14.366 14.0437 18.5102 9.1638 18.5102C7.61386 18.5102 6.15824 18.0927 4.89251 17.3586L0 19L1.59458 14.0348C0.789744 12.6397 0.326964 11.0043 0.326964 9.25609C0.326964 4.14354 4.28323 0 9.1638 0C14.0444 0 18 4.14354 18 9.25542ZM9.1638 1.4741C5.06606 1.4741 1.73417 4.96454 1.73417 9.25542C1.73417 10.9572 2.2592 12.5341 3.14892 13.8178L2.22147 16.7069L5.07612 15.7498C6.24879 16.5622 7.6541 17.0361 9.1638 17.0361C13.2597 17.0361 16.5928 13.5456 16.5928 9.25542C16.5928 4.96521 13.2597 1.4741 9.1638 1.4741ZM13.6256 11.3873C13.5709 11.2923 13.4263 11.2359 13.2106 11.1224C12.9937 11.0089 11.9285 10.4601 11.7298 10.3844C11.5318 10.3087 11.3859 10.2709 11.2425 10.4979C11.0979 10.7249 10.6829 11.2359 10.5559 11.3873C10.4302 11.5392 10.3038 11.5572 10.0875 11.4437C9.87054 11.3302 9.17197 11.0899 8.34513 10.318C7.70189 9.71604 7.26678 8.97401 7.13976 8.74702C7.01401 8.52003 7.12719 8.39791 7.23471 8.28442C7.33217 8.18221 7.45164 8.0196 7.55979 7.88752C7.66857 7.75478 7.70441 7.6592 7.77671 7.50788C7.84902 7.35655 7.81318 7.22447 7.75848 7.11098C7.70503 6.99749 7.27118 5.88113 7.09072 5.42649C6.91152 4.97317 6.73043 4.98977 6.60342 4.98977C6.4764 4.98977 6.24376 5.02959 6.24376 5.02959C6.24376 5.02959 5.80927 5.086 5.61121 5.31299C5.41314 5.53998 4.85353 6.08887 4.85353 7.20456C4.85353 8.32026 5.62881 9.40011 5.73759 9.55077C5.84637 9.70276 7.23534 12.0682 9.43794 12.9762C11.6399 13.8841 11.6399 13.5815 12.0373 13.543C12.4341 13.5058 13.3188 12.9948 13.4992 12.4645C13.6797 11.9348 13.6797 11.4802 13.6262 11.3859L13.6256 11.3873Z" fill="white"/>
</svg>
